<svg width="55" height="55" viewBox="0 0 33 33" fill="none" xmlns="http://www.w3.org/2000/svg">
<path d="M17.5861 0.5H32.1765C32.3979 0.5 32.5766 0.679752 32.5766 0.900127V15.4905C32.5766 15.6053 32.4822 15.6997 32.3674 15.6977C31.4006 15.6845 30.4562 15.5809 29.5422 15.3951C29.4457 15.3758 29.3766 15.2905 29.3766 15.192V5.96265L23.1523 12.187C23.0772 12.2621 22.9563 12.2692 22.8741 12.2012C22.1479 11.5979 21.4787 10.9297 20.8754 10.2036C20.8074 10.1213 20.8135 10.0005 20.8897 9.92532L27.114 3.70102H17.8836C17.7851 3.70102 17.6998 3.63196 17.6805 3.53548C17.4957 2.62148 17.3921 1.67702 17.3789 0.710219C17.3779 0.594446 17.4713 0.5 17.5861 0.5ZM3.77764 8.49949C3.77764 5.8489 5.92654 3.7 8.57713 3.7H15.8353C15.9642 3.7 16.0607 3.58321 16.0374 3.45627C15.8779 2.56055 15.7896 1.64148 15.7774 0.704126C15.7774 0.5914 15.687 0.5 15.5733 0.5H8.57713C4.15948 0.5 0.577637 4.08185 0.577637 8.49949V15.4946C0.577637 15.6073 0.669036 15.6987 0.781762 15.6997C1.71912 15.7109 2.6392 15.7993 3.5339 15.9587C3.66085 15.9811 3.77764 15.8856 3.77764 15.7566V8.49949ZM6.04028 29.3L12.2646 23.0757C12.3397 23.0005 12.3469 22.8797 12.2788 22.7974C11.6756 22.0713 11.0063 21.4021 10.2802 20.7998C10.1979 20.7318 10.0771 20.7379 10.0019 20.8141L3.77764 27.0384V17.808C3.77764 17.7095 3.70858 17.6242 3.6121 17.6049C2.69811 17.4191 1.75364 17.3155 0.78684 17.3023C0.672083 17.2992 0.577637 17.3937 0.577637 17.5084V32.0989C0.577637 32.3202 0.757389 32.499 0.977764 32.499H15.5682C15.6829 32.499 15.7774 32.4045 15.7754 32.2898C15.7621 31.323 15.6586 30.3785 15.4737 29.4645C15.4544 29.368 15.3691 29.299 15.2706 29.299H6.04028V29.3ZM29.3776 17.2424V24.4995C29.3776 27.1501 27.2287 29.299 24.5781 29.299H17.32C17.191 29.299 17.0946 29.4158 17.1179 29.5427C17.2774 30.4384 17.3657 31.3575 17.3779 32.2949C17.3789 32.4076 17.4703 32.499 17.583 32.499H24.5792C28.9978 32.499 32.5787 28.9171 32.5787 24.4995V17.5034C32.5787 17.3906 32.4873 17.2992 32.3745 17.2982C31.4372 17.2871 30.5171 17.1987 29.6224 17.0403C29.4944 17.0179 29.3776 17.1134 29.3776 17.2424ZM13.6935 21.6468L21.7244 13.6158C21.8098 13.5305 21.8037 13.3914 21.7112 13.3122C21.0105 12.7171 20.3595 12.0671 19.7644 11.3664C19.6862 11.274 19.5471 11.2679 19.4618 11.3532L11.4308 19.3842C11.3455 19.4695 11.3516 19.6086 11.444 19.6878C12.1448 20.2819 12.7957 20.9329 13.3908 21.6336C13.469 21.726 13.6082 21.7321 13.6935 21.6468Z" fill="#E8AC53"/>
</svg>
